<svg xmlns="http://www.w3.org/2000/svg" width="19" height="20" viewBox="0 0 19 20" fill="none">
<path d="M11.6928 5.02237C9.27135 5.02237 4.42102 3.11247 4.42102 0.756348H4.38517C4.38517 2.64207 5.15504 4.45056 6.52544 5.784C7.89584 7.11743 9.75448 7.86658 11.6926 7.86665C12.8554 7.86665 13.9707 8.31611 14.793 9.11616C15.6152 9.91621 16.0772 11.0013 16.0772 12.1328C16.0775 13.2642 15.6157 14.3495 14.7936 15.1497C13.9715 15.9499 12.8563 16.3996 11.6935 16.3998C10.5306 16.4 9.41522 15.9507 8.59279 15.1508C7.77035 14.3509 7.30818 13.2659 7.30795 12.1344C7.30792 11.2007 7.11888 10.2761 6.75161 9.41345C6.38433 8.55079 5.84603 7.76696 5.16742 7.10672C4.48881 6.44648 3.6832 5.92276 2.79657 5.56546C1.90995 5.20817 0.959664 5.02429 0 5.02432V5.05893C2.42106 5.05893 4.38399 9.77622 4.3849 12.1327H4.38444C4.38443 13.539 4.81299 14.9137 5.61594 16.083C6.4189 17.2523 7.56018 18.1636 8.89546 18.7018C10.2308 19.24 11.7001 19.3809 13.1177 19.1066C14.5352 18.8323 15.8373 18.1551 16.8594 17.1608C17.8814 16.1664 18.5774 14.8996 18.8595 13.5202C19.1416 12.141 18.9969 10.7114 18.4439 9.41212C17.8909 8.11285 16.9543 7.00232 15.7526 6.22095C14.5509 5.43958 13.138 5.02247 11.6928 5.02237Z" fill="white"/>
</svg>