<svg width="47" height="47" viewBox="0 0 47 47" fill="none" xmlns="http://www.w3.org/2000/svg">
<path d="M28.9242 10.8457C22.9344 10.8457 10.9362 5.99008 10.9362 0H10.8475C10.8475 4.79418 12.7519 9.392 16.1419 12.7821C19.5318 16.1721 24.1295 18.0767 28.9237 18.0769C31.8002 18.0769 34.559 19.2196 36.5931 21.2536C38.6272 23.2876 39.7699 26.0463 39.7699 28.9228C39.7706 31.7993 38.6283 34.5585 36.5947 36.5929C34.561 38.6274 31.8025 39.7706 28.926 39.7712C26.0493 39.7717 23.2903 38.6295 21.2558 36.5958C19.2214 34.5622 18.0781 31.8036 18.0776 28.9271C18.0775 26.5532 17.6099 24.2025 16.7013 22.0094C15.7928 19.8162 14.4612 17.8234 12.7826 16.1449C11.1039 14.4663 9.11108 13.1348 6.91783 12.2265C4.7246 11.3181 2.3739 10.8506 0 10.8507V10.9387C5.98895 10.9387 10.8446 22.9317 10.8468 28.9226H10.8457C10.8457 32.498 11.9058 35.9929 13.8921 38.9657C15.8783 41.9384 18.7015 44.2554 22.0046 45.6236C25.3077 46.9921 28.9423 47.3502 32.449 46.6527C35.9554 45.9554 39.1765 44.2338 41.7048 41.7059C44.2328 39.1779 45.9547 35.957 46.6524 32.4503C47.3502 28.9438 46.9923 25.3093 45.6243 22.006C44.2563 18.7028 41.9396 15.8795 38.967 13.8929C35.9943 11.9064 32.4993 10.846 28.9242 10.8457Z" fill="url(#paint0_linear_3_4)"/>
<defs>
<linearGradient id="paint0_linear_3_4" x1="37.459" y1="40.655" x2="10.152" y2="3.149" gradientUnits="userSpaceOnUse">
<stop offset="0.295" stop-color="#E73959"/>
<stop offset="0.384" stop-color="#E73D58"/>
<stop offset="0.477" stop-color="#E74955"/>
<stop offset="0.571" stop-color="#E95E51"/>
<stop offset="0.666" stop-color="#EA7B4B"/>
<stop offset="0.761" stop-color="#EDA044"/>
<stop offset="0.857" stop-color="#EFCE3B"/>
<stop offset="0.868" stop-color="#F0D43A"/>
</linearGradient>
</defs>
</svg>
